<svg width="222" height="222" viewBox="0 0 222 222" fill="none" xmlns="http://www.w3.org/2000/svg">
<circle cx="111" cy="111" r="111" fill="#1B184E"/>
<circle cx="111" cy="69" r="26" fill="#85AAF0"/>
<path fill-rule="evenodd" clip-rule="evenodd" d="M111 110C84.4904 110 63 88.5101 63 62.0005C64.0797 49.0053 53.0069 49.0007 50.0028 52.527C49.7737 52.7354 49.5549 52.9723 49.3479 53.2392C39.1008 66.4518 33 83.0465 33 101.067C33 116.917 48.0169 127.021 63.8662 127.021H158.134C173.983 127.021 189 116.917 189 101.067C189 83.0465 182.899 66.4518 172.652 53.2392C172.441 52.9666 172.217 52.7252 171.982 52.5134C168.957 49.0046 157.922 49.0307 159 62.0044C158.998 88.5122 137.508 110 111 110Z" fill="#3A6EE8"/>
<path d="M119.212 188.183L141.085 156.707C145.693 150.076 140.948 141 132.873 141H111H89.1266C81.052 141 76.3069 150.076 80.9147 156.707L102.788 188.183C106.766 193.907 115.234 193.907 119.212 188.183Z" fill="#85AAF0"/>
</svg>
